PathFileType	4	(X/Y/Z)	C:\Users\WrightLab\Desktop\Jo\P1_boxCal15.trc
DataRate	CameraRate	NumFrames	NumMarkers	Units	OrigDataRate	OrigDataStartFrame	OrigNumFrames
100.00	100.00	       10	19	mm	100.00	64	       507
Frame#	Time	Headset_Front			Headset_Back			Headset_Left			Headset_Right			Left_Shoulder			Right_Shoulder			Sternum			C7			Left Elbow			Right Elbow			Left Wrist			Right Wrist			Left ASIS			Right ASIS			S2			Left Knee			Right Knee			Left Ankle			Right Ankle			
		X1	Y1	Z1	X2	Y2	Z2	X3	Y3	Z3	X4	Y4	Z4	X5	Y5	Z5	X6	Y6	Z6	X7	Y7	Z7	X8	Y8	Z8	X9	Y9	Z9	X10	Y10	Z10	X11	Y11	Z11	X12	Y12	Z12	X13	Y13	Z13	X14	Y14	Z14	X15	Y15	Z15	X16	Y16	Z16	X17	Y17	Z17	X18	Y18	Z18	X19	Y19	Z19	

64	0.630	-563.61267	819.65363	-1001.90680	-322.25287	915.90051	-1157.70813										-610.47864	1464.79419	-1198.71960				-749.63177	1374.95264	-1041.30969	-524.69318	1402.77319	-1065.02100				-664.68250	1342.57703	-921.19843	-799.46893	1205.52087	-1165.90417	-577.31818	94.55347	-878.28192										-501.03931	428.80988	-993.06274	-425.52795	1228.01257	-1113.15857	-257.34814	740.20886	-1064.81018	
65	0.640	-567.68561	818.56616	-992.43195	-324.53287	913.01630	-1147.93420										-611.81909	1462.96423	-1190.10217				-751.16638	1375.05652	-1032.66785	-525.96716	1401.30920	-1057.16772				-665.23889	1342.80823	-912.66565	-801.43988	1203.76038	-1154.85571	-582.00391	91.66656	-870.25989										-506.91452	428.47409	-981.03442	-426.88803	1225.48267	-1103.61072	-259.24789	738.22760	-1057.27979	
66	0.650	-571.57379	816.90088	-983.10510	-327.84778	910.88647	-1137.78125										-612.90234	1461.62781	-1182.50354				-751.29822	1374.04553	-1023.48718	-527.23285	1400.98474	-1048.75391				-667.30414	1343.08594	-904.10242	-803.01276	1203.58521	-1146.93494	-585.76489	88.56766	-864.07587										-513.07831	427.86218	-968.81781	-428.69904	1223.70288	-1093.20959	-261.81076	735.88739	-1047.82593	
67	0.660	-576.53058	815.63354	-971.34290	-330.43924	908.97083	-1130.18225										-613.77246	1460.71582	-1174.42773				-753.27875	1375.03723	-1014.99432	-527.62695	1399.83337	-1040.17834				-668.04529	1343.32251	-895.19562	-804.85590	1203.22729	-1137.98608	-588.71320	83.61975	-858.77069										-518.07880	427.83792	-957.71063	-430.32303	1221.91113	-1084.31152	-264.23297	733.74646	-1039.38257	
68	0.670	-579.83612	815.32263	-959.11328	-333.26352	906.71698	-1119.69824										-614.55103	1459.75610	-1166.35974				-753.37317	1375.32788	-1006.25879	-528.97418	1399.07434	-1031.01013				-668.24146	1343.76831	-886.46387	-806.43347	1203.31238	-1128.99878	-589.97925	78.50732	-853.88684										-523.75470	426.88733	-945.18347	-431.09302	1220.21802	-1073.79602	-266.94321	731.72937	-1029.98901	
69	0.680	-583.10175	815.61060	-949.21765	-336.23828	904.81110	-1109.49023										-615.21802	1458.84241	-1158.12048				-754.32001	1375.12451	-997.17059	-529.38495	1398.48840	-1022.63672				-669.37354	1345.48059	-877.31250	-807.25531	1203.58264	-1119.88660	-590.83881	74.75333	-850.25256										-528.98755	426.24075	-931.52917	-432.23361	1219.41675	-1066.33179	-269.69958	730.20288	-1020.69293	
70	0.690	-587.36249	815.97540	-938.36871	-339.12076	903.09912	-1098.73108										-615.83942	1458.11169	-1149.46643				-754.77472	1375.91113	-988.50006	-529.60785	1399.00830	-1015.77545				-669.83374	1345.88318	-868.13446	-808.49835	1203.98450	-1110.19946	-592.58978	72.51083	-845.04651										-533.32874	425.86252	-920.23895	-433.09741	1217.70068	-1053.61377	-271.26688	728.63586	-1013.23004	
71	0.700	-590.46069	814.65778	-925.24359	-342.35562	902.09125	-1088.87866										-616.27716	1458.32642	-1141.13501				-755.52222	1376.62402	-979.63782	-530.52618	1399.04309	-1005.59760				-670.92810	1347.68555	-859.39056	-809.59052	1205.49243	-1101.36182	-594.91162	71.40454	-838.32550										-539.14117	424.36197	-907.40411	-434.31912	1216.90601	-1044.04785	-274.85052	726.81512	-1002.10199	
72	0.710	-593.64203	816.24744	-914.04114	-344.55847	901.38232	-1080.67676										-616.78674	1458.78870	-1131.91492				-756.14569	1377.96094	-970.21265	-530.98712	1399.93066	-995.44025				-671.29346	1349.45862	-849.62592	-810.93896	1207.38440	-1091.56079	-597.20251	70.55097	-830.37579										-543.89545	423.20679	-894.87292	-435.43774	1216.44202	-1034.17822	-277.18561	725.11224	-991.85645	
73	0.720	-597.45862	818.64886	-899.50916	-347.56815	900.11505	-1068.60730										-617.33063	1459.56689	-1122.94373				-757.09052	1379.53259	-960.82062	-531.33411	1400.73767	-985.60931				-672.45923	1351.26575	-840.21893	-811.97693	1208.93628	-1082.04236	-597.34955	69.37927	-824.37561										-546.23767	425.52798	-884.19385	-435.95419	1215.64819	-1022.97644	-280.11072	724.05988	-983.42151	
